<svg xmlns="http://www.w3.org/2000/svg" version="1.1" xmlns:xlink="http://www.w3.org/1999/xlink" xmlns:svgjs="http://svgjs.dev/svgjs" width="1000" height="1000"><g clip-path="url(#SvgjsClipPath1074)"><rect width="1000" height="1000" fill="#ffffff"></rect><g transform="matrix(8.231420507996237,0,0,8.231420507996237,150,150)"><svg xmlns="http://www.w3.org/2000/svg" version="1.1" xmlns:xlink="http://www.w3.org/1999/xlink" xmlns:svgjs="http://svgjs.dev/svgjs" width="85.04" height="85.04"><svg id="Ebene_1" xmlns="http://www.w3.org/2000/svg" version="1.1" viewBox="0 0 85.04 85.04">
  <!-- Generator: Adobe Illustrator 29.0.0, SVG Export Plug-In . SVG Version: 2.1.0 Build 186)  -->
  <path d="M42.52,66.72c-6.85,0-12.65-2.21-17.4-6.63-4.75-4.42-7.12-10.27-7.12-17.57s2.37-13.14,7.12-17.57c4.75-4.42,10.55-6.63,17.4-6.63s12.93,2.21,17.57,6.63c4.64,4.42,6.96,10.27,6.96,17.57s-2.32,13.15-6.96,17.57c-4.64,4.42-10.5,6.63-17.57,6.63Z"></path>
</svg></svg></g></g><defs><clipPath id="SvgjsClipPath1074"><rect width="1000" height="1000" x="0" y="0" rx="350" ry="350"></rect></clipPath></defs></svg>