<?xml version="1.0" encoding="UTF-8"?>
<svg xmlns="http://www.w3.org/2000/svg" version="1.1" viewBox="0 0 525.8 207.16">
  <!-- Generator: Adobe Illustrator 28.7.1, SVG Export Plug-In . SVG Version: 1.2.0 Build 142)  -->
  <g>
    <g id="Ebene_1">
      <g>
        <g>
          <path d="M124.61,193.97v-46.18h4.22v20.85h.79l21.37-20.85h5.94l-23.88,22.83,24.68,23.36h-6l-22.1-21.24h-.79v21.24h-4.22Z"/>
          <path d="M173.96,194.63c-2.29,0-4.41-.48-6.37-1.45s-3.52-2.43-4.68-4.39c-1.16-1.96-1.75-4.41-1.75-7.36v-19.53h3.96v19.27c0,3.47.88,5.99,2.64,7.55,1.76,1.56,4.11,2.34,7.06,2.34,3.3,0,6.05-1.09,8.25-3.27,2.2-2.18,3.3-5.46,3.3-9.86v-16.03h3.96v32.06h-3.83v-5.94h-.79c-.79,1.72-2.09,3.24-3.89,4.58-1.8,1.34-4.42,2.01-7.85,2.01Z"/>
          <path d="M200.28,193.97v-46.18h3.96v46.18h-3.96Z"/>
          <path d="M224.49,193.97c-1.72,0-3-.44-3.86-1.32-.86-.88-1.29-2.11-1.29-3.69v-23.49h-10.29v-3.56h10.29v-12.01h3.96v12.01h11.21v3.56h-11.21v22.96c0,1.32.66,1.98,1.98,1.98h7.52v3.56h-8.31Z"/>
          <path d="M252.73,194.63c-2.29,0-4.41-.48-6.37-1.45s-3.52-2.43-4.68-4.39c-1.16-1.96-1.75-4.41-1.75-7.36v-19.53h3.96v19.27c0,3.47.88,5.99,2.64,7.55,1.76,1.56,4.11,2.34,7.06,2.34,3.3,0,6.05-1.09,8.25-3.27,2.2-2.18,3.3-5.46,3.3-9.86v-16.03h3.96v32.06h-3.83v-5.94h-.79c-.79,1.72-2.09,3.24-3.89,4.58-1.8,1.34-4.42,2.01-7.85,2.01Z"/>
          <path d="M277.74,193.97v-32.06h3.83v4.02h.79c.62-1.45,1.53-2.51,2.74-3.17,1.21-.66,2.89-.99,5.05-.99h3.76v3.69h-4.22c-2.42,0-4.36.68-5.81,2.05-1.45,1.36-2.18,3.5-2.18,6.4v20.06h-3.96Z"/>
          <path d="M308.94,194.89c-2.24,0-4.28-.39-6.1-1.15-1.83-.77-3.27-1.9-4.32-3.4-1.06-1.49-1.58-3.3-1.58-5.41s.53-3.94,1.58-5.34,2.49-2.46,4.29-3.17c1.8-.7,3.8-1.06,6-1.06h11.74v-2.57c0-2.59-.75-4.62-2.24-6.07-1.5-1.45-3.67-2.18-6.53-2.18s-5.05.69-6.7,2.08c-1.65,1.38-2.76,3.24-3.33,5.57l-3.83-1.12c.53-1.89,1.36-3.6,2.51-5.11,1.14-1.52,2.66-2.73,4.55-3.63,1.89-.9,4.16-1.35,6.79-1.35,4.05,0,7.18,1.06,9.4,3.17,2.22,2.11,3.33,5.06,3.33,8.84v15.57c0,1.32.62,1.98,1.85,1.98h3.1v3.43h-4.22c-1.36,0-2.44-.41-3.23-1.22-.79-.81-1.19-1.92-1.19-3.33v-.46h-.66c-.57.97-1.31,1.91-2.21,2.84-.9.92-2.08,1.67-3.53,2.24s-3.28.86-5.48.86ZM309.21,191.33c3.39,0,6.12-1.02,8.21-3.07,2.09-2.05,3.13-4.94,3.13-8.68v-.79h-11.68c-2.29,0-4.19.49-5.71,1.48-1.52.99-2.28,2.52-2.28,4.58s.78,3.66,2.34,4.78c1.56,1.12,3.55,1.68,5.97,1.68Z"/>
          <path d="M332.43,178.07v-.79c0-3.39.69-6.29,2.08-8.71,1.38-2.42,3.24-4.29,5.58-5.61,2.33-1.32,4.93-1.98,7.78-1.98,3.52,0,6.26.69,8.22,2.08,1.96,1.38,3.4,2.96,4.32,4.72h.79v-5.87h3.7v40.24c0,1.58-.42,2.81-1.25,3.7-.84.88-2.11,1.32-3.83,1.32h-21.9v-3.56h21.11c1.36,0,2.04-.66,2.04-1.98v-13.79h-.79c-.57,1.06-1.37,2.09-2.41,3.1-1.03,1.01-2.37,1.84-3.99,2.47-1.63.64-3.63.96-6.01.96-2.86,0-5.46-.66-7.82-1.98-2.35-1.32-4.21-3.2-5.58-5.64-1.36-2.44-2.04-5.33-2.04-8.68ZM348.79,190.8c3.65,0,6.61-1.14,8.87-3.43,2.26-2.29,3.4-5.43,3.4-9.43v-.53c0-4.05-1.13-7.2-3.4-9.47-2.27-2.26-5.22-3.4-8.87-3.4s-6.55,1.13-8.84,3.4c-2.29,2.27-3.43,5.42-3.43,9.47v.53c0,4,1.14,7.15,3.43,9.43,2.29,2.29,5.24,3.43,8.84,3.43Z"/>
          <path d="M388.31,194.89c-3.3,0-6.17-.69-8.61-2.08-2.44-1.39-4.34-3.33-5.71-5.84-1.37-2.51-2.05-5.39-2.05-8.64v-.79c0-3.3.68-6.19,2.05-8.68,1.36-2.48,3.24-4.42,5.64-5.81,2.4-1.39,5.13-2.08,8.21-2.08s5.64.63,7.95,1.88,4.12,3.06,5.44,5.41c1.32,2.35,1.98,5.16,1.98,8.41v2.11h-27.32c.13,4,1.35,7.09,3.66,9.27,2.31,2.18,5.22,3.27,8.74,3.27,2.99,0,5.31-.68,6.96-2.05,1.65-1.36,2.91-3.03,3.79-5.01l3.56,1.58c-.66,1.45-1.57,2.87-2.74,4.26-1.17,1.38-2.67,2.53-4.52,3.43-1.85.9-4.2,1.35-7.06,1.35ZM375.97,175.36h23.22c-.18-3.47-1.3-6.15-3.37-8.02-2.07-1.87-4.73-2.8-7.98-2.8s-5.87.94-7.98,2.8c-2.11,1.87-3.41,4.54-3.89,8.02Z"/>
          <path d="M410.02,193.97v-32.06h3.83v5.94h.79c.79-1.71,2.09-3.24,3.89-4.58,1.8-1.34,4.42-2.01,7.85-2.01,2.33,0,4.46.49,6.4,1.45,1.93.97,3.48,2.43,4.65,4.39,1.16,1.96,1.75,4.41,1.75,7.36v19.53h-3.96v-19.27c0-3.52-.88-6.05-2.64-7.59-1.76-1.54-4.11-2.31-7.06-2.31-3.3,0-6.05,1.09-8.25,3.27-2.2,2.18-3.3,5.47-3.3,9.86v16.03h-3.96Z"/>
          <path d="M456.4,193.97c-1.72,0-3-.44-3.86-1.32-.86-.88-1.29-2.11-1.29-3.69v-23.49h-10.29v-3.56h10.29v-12.01h3.96v12.01h11.22v3.56h-11.22v22.96c0,1.32.66,1.98,1.98,1.98h7.52v3.56h-8.31Z"/>
          <path d="M484.63,194.63c-2.29,0-4.41-.48-6.37-1.45-1.96-.97-3.52-2.43-4.68-4.39-1.17-1.96-1.75-4.41-1.75-7.36v-19.53h3.96v19.27c0,3.47.88,5.99,2.64,7.55,1.76,1.56,4.11,2.34,7.06,2.34,3.3,0,6.05-1.09,8.25-3.27,2.2-2.18,3.3-5.46,3.3-9.86v-16.03h3.96v32.06h-3.83v-5.94h-.79c-.79,1.72-2.09,3.24-3.89,4.58-1.8,1.34-4.42,2.01-7.85,2.01Z"/>
          <path d="M509.64,193.97v-32.06h3.83v4.02h.79c.62-1.45,1.53-2.51,2.74-3.17,1.21-.66,2.89-.99,5.05-.99h3.76v3.69h-4.22c-2.42,0-4.35.68-5.8,2.05-1.45,1.36-2.18,3.5-2.18,6.4v20.06h-3.96Z"/>
        </g>
        <g>
          <path d="M49.54,133.08c-9.63,0-18.19-1.74-25.69-5.21-7.49-3.47-13.34-8.5-17.55-15.08S0,98.17,0,88.66v-4.75h20.84v4.75c0,8.66,2.62,15.14,7.86,19.47,5.24,4.33,12.18,6.49,20.84,6.49s15.6-1.86,20.11-5.58c4.51-3.72,6.76-8.44,6.76-14.17,0-3.9-1.07-7.07-3.2-9.51-2.13-2.44-5.21-4.42-9.23-5.94-4.02-1.52-8.78-2.89-14.26-4.11l-6.03-1.46c-8.41-1.95-15.66-4.39-21.76-7.31-6.09-2.92-10.78-6.76-14.08-11.52-3.29-4.75-4.94-10.91-4.94-18.46s1.86-14.23,5.58-19.65c3.72-5.42,8.9-9.6,15.54-12.52C30.68,1.46,38.45,0,47.35,0s17.06,1.53,24.13,4.57c7.07,3.05,12.61,7.59,16.63,13.62,4.02,6.03,6.03,13.62,6.03,22.76v6.22h-20.84v-6.22c0-5.36-1.07-9.66-3.2-12.89-2.13-3.23-5.15-5.64-9.05-7.22-3.9-1.58-8.47-2.38-13.71-2.38-7.68,0-13.53,1.55-17.55,4.66-4.02,3.11-6.03,7.4-6.03,12.89,0,3.54.91,6.52,2.74,8.96,1.83,2.44,4.51,4.42,8.04,5.94,3.53,1.53,7.98,2.9,13.34,4.11l6.03,1.46c8.53,1.83,16.02,4.21,22.49,7.13,6.46,2.92,11.55,6.86,15.26,11.79s5.58,11.24,5.58,18.92-1.95,14.41-5.85,20.2c-3.9,5.79-9.41,10.33-16.54,13.62-7.13,3.29-15.57,4.94-25.32,4.94Z"/>
          <path d="M143.5,130.52c-5.73,0-10.27-1.71-13.62-5.12-3.35-3.41-5.03-7.98-5.03-13.71v-54.66h-24.13v-16.82h24.13V10.97h20.11v29.25h26.33v16.82h-26.33v51.19c0,3.66,1.71,5.48,5.12,5.48h18.46v16.82h-25.04Z"/>
          <path d="M221.38,133.08c-9.02,0-17.07-1.86-24.13-5.58-7.07-3.72-12.65-9.02-16.73-15.9-4.08-6.88-6.12-15.14-6.12-24.77v-2.74c0-9.63,2.04-17.92,6.12-24.86,4.08-6.95,9.66-12.28,16.73-16,7.07-3.72,15.11-5.58,24.13-5.58s17.06,1.86,24.13,5.58c7.07,3.72,12.64,9.05,16.73,16,4.08,6.95,6.12,15.24,6.12,24.86v2.74c0,9.63-2.04,17.89-6.12,24.77-4.08,6.89-9.66,12.19-16.73,15.9s-15.11,5.58-24.13,5.58ZM221.38,115.17c7.92,0,14.38-2.53,19.37-7.59,5-5.06,7.5-12.16,7.5-21.3v-1.83c0-9.02-2.47-16.09-7.4-21.21-4.93-5.12-11.42-7.68-19.47-7.68s-14.38,2.56-19.38,7.68c-5,5.12-7.49,12.19-7.49,21.21v1.83c0,9.14,2.5,16.24,7.49,21.3,5,5.06,11.45,7.59,19.38,7.59Z"/>
          <path d="M280.97,130.52V40.22h19.74v10.6h3.11c1.46-3.78,3.75-6.55,6.86-8.32,3.11-1.76,6.98-2.65,11.61-2.65h10.78v18.1h-11.33c-6.1,0-11.06,1.62-14.9,4.84-3.84,3.23-5.76,8.32-5.76,15.26v52.47h-20.11Z"/>
          <path d="M355,28.52c-3.78,0-6.98-1.22-9.6-3.66-2.62-2.44-3.93-5.67-3.93-9.69s1.31-7.25,3.93-9.69c2.62-2.44,5.82-3.66,9.6-3.66s7.13,1.22,9.69,3.66c2.56,2.44,3.84,5.67,3.84,9.69s-1.28,7.25-3.84,9.69c-2.56,2.44-5.79,3.66-9.69,3.66ZM344.77,130.52V40.22h20.11v90.31h-20.11Z"/>
          <path d="M422.46,133.08c-9.02,0-16.97-1.92-23.86-5.76-6.89-3.84-12.25-9.26-16.09-16.27-3.84-7.01-5.76-15.2-5.76-24.59v-2.19c0-9.38,1.89-17.58,5.67-24.59,3.78-7.01,9.08-12.43,15.91-16.27,6.82-3.84,14.68-5.76,23.58-5.76s16.27,1.92,22.85,5.76c6.58,3.84,11.7,9.23,15.36,16.18,3.66,6.95,5.48,14.99,5.48,24.13v7.31h-68.37c.24,7.44,2.8,13.38,7.68,17.82,4.87,4.45,10.91,6.67,18.1,6.67s12.13-1.52,15.54-4.57c3.41-3.05,5.97-6.52,7.68-10.42l16.64,8.41c-1.71,3.41-4.18,6.98-7.4,10.69-3.23,3.72-7.49,6.89-12.8,9.51-5.3,2.62-12.04,3.93-20.2,3.93ZM397.41,75.87h47.71c-.49-6.33-2.83-11.33-7.04-14.99-4.2-3.66-9.66-5.48-16.36-5.48s-12.34,1.83-16.54,5.48c-4.21,3.66-6.8,8.66-7.77,14.99Z"/>
        </g>
      </g>
    </g>
  </g>
</svg>